<svg id="Слой_1" data-name="Слой 1" xmlns="http://www.w3.org/2000/svg" viewBox="0 0 886.89 177.02">
  <defs>
    <style>
      .cls-1 {
        fill: #010204;
      }

      .cls-2 {
        fill: #0f1011;
      }

      .cls-3 {
        fill: #201600;
      }
    </style>
  </defs>
  <title>logo digital production</title>
  <g>
    <path class="cls-1" d="M554.3,675l-18.16,56.84H521.06L510.7,698.88l-10.87,32.94h-15L467.84,675h15.45l9.87,36.73,12-36.73h11.74l11.2,36.73L538.89,675H554.3Z" transform="translate(-241.15 -621.41)"/>
    <path class="cls-1" d="M592.61,731.82H560.25V675h32.36V687.3H575V697h16.62v12.33H575v10.16h17.57v12.33Z" transform="translate(-241.15 -621.41)"/>
    <path class="cls-1" d="M645.25,715.66A14.85,14.85,0,0,1,641.62,726q-5.25,5.79-16,5.79H602V675h22q16,0,16,14.83a14.59,14.59,0,0,1-1.75,7.45,12.09,12.09,0,0,1-4.5,4.33Q640.52,703,643,707A16.33,16.33,0,0,1,645.25,715.66Zm-19-23.9a5,5,0,0,0-3.48-5.12,10.75,10.75,0,0,0-3.32-.42h-2.7v11.12h2.7q3.81,0,5.47-1.87A5.39,5.39,0,0,0,626.26,691.76Zm4.21,22.9q0-5-5.11-5.83a42,42,0,0,0-5.56-.25h-3v12H620q5.65,0,7.89-1.33A5,5,0,0,0,630.46,714.66Z" transform="translate(-241.15 -621.41)"/>
    <path class="cls-1" d="M695.63,730.49a36.61,36.61,0,0,1-13.41,2.87A29.78,29.78,0,0,1,663,726.49a29.68,29.68,0,0,1,0-45.85,30,30,0,0,1,19.36-6.87,37.05,37.05,0,0,1,13.28,2.87v17.7a16.75,16.75,0,0,0-4.25-3.86,16.19,16.19,0,0,0-8.51-2.39,15.37,15.37,0,0,0-10,3.47q-5.38,4.38-5.38,12t5.38,12a15.36,15.36,0,0,0,10,3.47,16.19,16.19,0,0,0,8.51-2.39,16.6,16.6,0,0,0,4.25-3.86v17.7Z" transform="translate(-241.15 -621.41)"/>
    <path class="cls-1" d="M765.39,703.59a29.8,29.8,0,0,1-7.7,20.32q-8.79,10-23.78,10t-23.74-10a29.8,29.8,0,0,1-7.7-20.32,30.81,30.81,0,0,1,2.08-10.85,30.17,30.17,0,0,1,5.58-9.52q8.79-10,23.78-10t23.78,10A29.86,29.86,0,0,1,765.39,703.59Zm-15.32,0a15.26,15.26,0,0,0-3.84-10.4,16.15,16.15,0,0,0-28.43,10.4,15.55,15.55,0,0,0,3.84,10.31,15.33,15.33,0,0,0,12.28,5.64A16,16,0,0,0,750.06,703.59Z" transform="translate(-241.15 -621.41)"/>
    <path class="cls-1" d="M831.52,731.82H816.73L789.54,697v34.81H774.76V675h14.78l27.19,34.77V675h14.78v56.84Z" transform="translate(-241.15 -621.41)"/>
    <path class="cls-1" d="M897.11,675l-24.24,56.84H861.38L837.47,675h16.07l13.7,34.56L881.07,675h16Z" transform="translate(-241.15 -621.41)"/>
    <path class="cls-1" d="M935.42,731.82H903.06V675h32.36V687.3H917.84V697h16.62v12.33H917.84v10.16h17.57v12.33Z" transform="translate(-241.15 -621.41)"/>
    <path class="cls-1" d="M992.05,731.82H973.69L959.57,710v21.82H944.79V675h23q10.08,0,14.91,6a17.74,17.74,0,0,1,3.92,11.45q0,7.54-4.5,12a15.74,15.74,0,0,1-7.91,4Zm-20.78-38.54a6.73,6.73,0,0,0-2.21-5.11q-2.09-2-6.73-2h-2.76v14.16h2.76q4.68,0,6.73-2A6.86,6.86,0,0,0,971.27,693.28Z" transform="translate(-241.15 -621.41)"/>
    <path class="cls-1" d="M1031.95,687.3H1019.7v44.52h-14.78V687.3h-12V675h39.06V687.3Z" transform="translate(-241.15 -621.41)"/>
    <path class="cls-1" d="M1070.8,731.82h-32.36V675h32.36V687.3h-17.57V697h16.62v12.33h-16.62v10.16h17.57v12.33Z" transform="translate(-241.15 -621.41)"/>
    <path class="cls-1" d="M1127.44,731.82h-18.37L1095,710v21.82h-14.78V675h23q10.08,0,14.91,6a17.74,17.74,0,0,1,3.92,11.45q0,7.54-4.5,12a15.74,15.74,0,0,1-7.91,4Zm-20.78-38.54a6.73,6.73,0,0,0-2.21-5.11q-2.09-2-6.73-2H1095v14.16h2.76q4.68,0,6.73-2A6.86,6.86,0,0,0,1106.66,693.28Z" transform="translate(-241.15 -621.41)"/>
  </g>
  <g>
    <path class="cls-2" d="M415.71,631.33h0Z" transform="translate(-241.15 -621.41)"/>
    <path class="cls-2" d="M393.43,649c0.17,0.91.17,0.56,0.73,1.29-1.08,1.64-5.3,5.3-6.94,6.94l-44.94,45.11-1.81,1.81c-0.56.35-1.46,1.29-2,1.64l-55.29-55.12c0.56-.91.56-0.35,0.91-1.46-2.93-1.81-5.65-4.39-8.4-6.59-0.91-.73-1.81-1.46-2.75-2.2-1.64-1.29-10-8.58-11.33-9,2.75,4,6,7.5,9,11.33l7.84,9.69a3,3,0,0,1,1.08,1.46,4.57,4.57,0,0,0,1.46-1.08L336.26,708c-1.46,2-50.94,50.94-56.06,56.06-4,4.18-2.2,2.93-8,4a25.77,25.77,0,0,1-3.66.56c1.08,1.46,2.75.56,4,.35s2.2-.35,3.28-0.56a6.65,6.65,0,0,1-1.64,1.64c-0.91.91-7.67,1.81-9,2,1.08,1.64,4.92-.17,7.29-0.35-1.46,2-2,2.2-4.57,2.55-2,.35-4.18.56-6,1.08,0.35,0.56.17,0.73,1.29,0.73,1.64,0,4-.91,5.86-1.08-1.29,2-2.2,2.2-4.39,2.55s-4.18.73-6,1.08c1.08,1.64,3.1-.17,7.11-0.17l-3.45,3.66,2.2,2.2,3.45-3.45c0,4-1.81,5.86-.17,7.11,0.17-1.29,1.29-7.84,1.81-8.58a7.37,7.37,0,0,1,1.81-1.64c-0.17,1.64-1.46,5.47-.73,6.76,0.73-.17.56,0.17,0.73-0.91,0.73-3.45.17-7.11,3.28-9.31-0.17,1.81-1.46,5.65-.73,6.94,0.73-.17.56,0,0.73-0.91a6,6,0,0,0,.17-1.64c0.17-1.08.35-2,.56-3.1,0.35-2.2.73-3.28,2.55-4.57,0,1.81-1.46,5.47-.73,6.94,1.08-.35.91-1.64,1.08-2.75,1.08-5.47,0-4.57,3.83-8.4,5.12-5.12,54.6-55.12,56.41-56.41,1.08,1.64,53.13,53.48,58.43,58.43,1.08,1.08.91,1.08,1.29,2.93l0.91,5.12c0.17,1.08,0,1.08.73,1.29,0.91-.91-0.56-5.47-0.73-6.94,3.1,2.2,2.55,5.86,3.28,9.31,0.35,1.08.17,0.73,0.91,1.08,0.56-1.46-.73-5.3-0.91-6.94,2,1.29,2.2,1.81,2.75,4.57l0.73,4.57c0.17,1.08,0,.73.73,1.08,0.91-1.08-.73-5.47-0.73-6.94,3.28,2.2,2.37,5.65,3.28,9.13,0.35,1.29,0,.91.73,1.08,0.73-1.29-.56-5.12-0.73-6.94l3.45,3.45,2.55-2.37-3.83-3.66c2,0,4,.91,5.86,1.08a1.23,1.23,0,0,0,1.46-.73,48.55,48.55,0,0,0-5.86-1.08c-2.75-.56-3.28-0.56-4.74-2.55l5.86,0.91c1.08,0.17.91,0,1.46-.73l-6-.91c-2.55-.56-3.28-0.73-4.57-2.55,1.29,0.17,2.37.35,3.66,0.56,1.81,0.35,2.75.91,3.45-.35-1.29,0-7.84-1.08-8.75-1.81a7.37,7.37,0,0,1-1.64-1.81,37.5,37.5,0,0,0,6.38,1.08c0.91,0,0,0,.73-0.17-0.17-.73.35-0.56-1.08-0.73l-5.3-.91c-3.1-.56-2.2-0.56-4.92-3.28L357.1,724.24l-4-4-4.18-4c-2-1.81-6.76-6.21-8-8.23l55.5-55.5c0.91,0.73.73,0.91,1.64,1.08,0.17-.73.35-0.56,0.91-1.29,3.66-4.57,8.75-11.12,12.41-15.34l4.39-5.65a14.37,14.37,0,0,0-2.75,2,19.35,19.35,0,0,0-2.93,2.37l-11.12,9a28.55,28.55,0,0,0-2.55,2.2C395.24,647.57,394.34,648.3,393.43,649Z" transform="translate(-241.15 -621.41)"/>
    <path class="cls-2" d="M261.61,631.33h0Z" transform="translate(-241.15 -621.41)"/>
    <path class="cls-2" d="M327.89,779.74c0-5.12,3.83-13.32,10-13.32,6.94,0,13.14,4.74,13.14,10.95,0,4.18-.17,6.59-3.66,9.69C341.76,792.32,327.89,790.86,327.89,779.74Zm27.75-8.23c0-1.29-.35-2.37.91-2.55a1.32,1.32,0,0,1,1.64,1.46C356.72,770.78,356.55,770.43,355.64,771.51Zm-27-14.22c0,3.1-1.08,6.21-4.74,6.21-4.18.17-7.29-.73-8.23,2.93-0.73,3.1-.17,7.29-0.35,10.77,0,1.81-.17,1.81-0.17,5.12,0,8.58-1.08,13.7,9.69,14l26.84-.35c5.12-.73,2.75.73,10.21-1.08,1.08-.35.91,0,1.29-1.08,1.29-3.83,1.46-11.68,1.46-16.07a37.4,37.4,0,0,0-.56-6.76c-0.17-2-.91-4.39-0.91-6.21-6.94-1.64-4.92-1.46-12.06-1.46,0-8.4-6.21-6.21-15.17-6.21-1.64,0-1.81.17-3.28,0.17A39,39,0,0,1,328.62,757.29Z" transform="translate(-241.15 -621.41)"/>
    <path class="cls-2" d="M391.79,690.63h35.42V714.2H391.79V690.63Zm-4.57.94V714.2h-5.65c0.35,3.66,0,1.08,0,3.28a8.94,8.94,0,0,0,2.2,1.46,12.16,12.16,0,0,0,2.75.91c5.47,1.46,21.72.56,29,.56,4.57,0,15.69,1.81,18.79-.91,0.91-.91,3.45-5.3,1.46-5.3H432L432.16,693c0-10-9.87-8.58-19-8.58-5.65,0-10.77.35-16.07,0.35C392.87,684.81,387.23,684.07,387.23,691.57Z" transform="translate(-241.15 -621.41)"/>
    <path class="cls-2" d="M246.83,698.51a17.85,17.85,0,0,0,4-3.66l12.24-11.5,24.26,23.36a6.84,6.84,0,0,1-1.81,2c-0.91.91-1.29,1.08-2.2,2a15.79,15.79,0,0,1-2,1.81l-8.23,7.84a5.3,5.3,0,0,1-2.2,1.81c-1.81-1.29-5.47-5.65-7.29-7.29l-7.67-7.5c-1.08-1.08-2-1.64-3.1-2.75C251.19,703.25,247.74,700.15,246.83,698.51Zm-5.68-.21c1.29,1.81,6.76,7.11,8.23,8.58,2.55,2.55,3.1,2.93,5.3,5.47,2,2.37,9.87,9.48,11.68,11.85,1.81,2.55,7.11,6.76,8.4,8.75l13.53-13.14c1.81-1.81,6.59-5.65,8-7.84l-18.06-18.44c-3.66-4.39-9.48-9-12.59-13l-3.45-3.28-4,3.66c-0.56.56-.91,0.73-1.46,1.29-2.93,2.37-9.87,9.87-13,13.14-0.56.56-.73,0.91-1.29,1.46A4.83,4.83,0,0,0,241.15,698.3Z" transform="translate(-241.15 -621.41)"/>
    <path class="cls-2" d="M327.89,645.38a5.36,5.36,0,0,0,2.2.91c2.55,0.91,3.45,1.81,3.45,6.38-4.92-.56-6.94-0.91-6.21-4C327.51,647.57,327.68,646.46,327.89,645.38Zm-4.57,11.85c3.83-1.81,10.21-.17,17.33-9.31,2.75-3.28,6.59-6,9.31-8.75l2.37-2a50.53,50.53,0,0,0,5.86-7.67c0.73-1.46.91-1.64,0.17-2.93-7.5-10.39-11.85-2.75-17.71,3.1-1.46,1.64-2.75,3.1-4.39,4.74C329,641.71,323.32,645.9,323.32,657.23Z" transform="translate(-241.15 -621.41)"/>
    <path class="cls-2" d="M331.72,778.45v1.29c0,4.74,15,9.69,15-.35v-1.46c0-3.45-2.93-7.5-6.21-7.5C335.18,770.43,331.72,775.17,331.72,778.45Z" transform="translate(-241.15 -621.41)"/>
  </g>
  <g>
    <path class="cls-3" d="M705.22,767.63q0,9-5.33,13.78t-15.35,4.77h-11V749.78h12.16q9.25,0,14.38,4.71T705.22,767.63Zm-4.88.15q0-7.12-3.89-10.73t-11.57-3.61h-6.7v29.09h5.62q8.25,0,12.4-3.72T700.34,767.78Z" transform="translate(-241.15 -621.41)"/>
    <path class="cls-3" d="M713,751.5a2.62,2.62,0,0,1,.76-2.08,3,3,0,0,1,3.77,0,2.58,2.58,0,0,1,.79,2.07,2.61,2.61,0,0,1-.79,2.08,2.77,2.77,0,0,1-1.87.68,2.74,2.74,0,0,1-1.9-.68A2.66,2.66,0,0,1,713,751.5Zm4.88,34.69h-4.5V758.89h4.5v27.29Z" transform="translate(-241.15 -621.41)"/>
    <path class="cls-3" d="M751.79,758.89v2.61l-5.51.6a8.54,8.54,0,0,1,1.36,2.28,8,8,0,0,1,.6,3.17,7.78,7.78,0,0,1-3,6.4q-3,2.39-8.2,2.39a14.73,14.73,0,0,1-2.5-.2q-2.88,1.4-2.88,3.51a1.76,1.76,0,0,0,1,1.66,7.91,7.91,0,0,0,3.45.54h5.26q4.83,0,7.42,1.87a6.28,6.28,0,0,1,2.59,5.43,7.6,7.6,0,0,1-4,6.91q-4,2.38-11.56,2.38-5.83,0-9-2a6.29,6.29,0,0,1-3.16-5.63,6,6,0,0,1,1.74-4.31,9.08,9.08,0,0,1,4.88-2.46,4.63,4.63,0,0,1-1.91-1.47,3.67,3.67,0,0,1-.77-2.32,4.15,4.15,0,0,1,.87-2.62,9,9,0,0,1,2.74-2.17,7.88,7.88,0,0,1-3.76-3,8.18,8.18,0,0,1-1.45-4.78,8.47,8.47,0,0,1,2.93-6.91q2.93-2.43,8.3-2.43a16.38,16.38,0,0,1,4.21.5h10.29Zm-23.72,31.88a3.65,3.65,0,0,0,2,3.36,12.08,12.08,0,0,0,5.83,1.14q5.67,0,8.4-1.56a4.72,4.72,0,0,0,2.73-4.22,3.24,3.24,0,0,0-1.49-3.08q-1.49-.86-5.62-0.86h-5.4a7.56,7.56,0,0,0-4.78,1.34A4.62,4.62,0,0,0,728.07,790.77Zm2.44-23.13a5.31,5.31,0,0,0,1.76,4.33,7.45,7.45,0,0,0,4.91,1.47q6.59,0,6.59-5.88,0-6.15-6.68-6.15a7,7,0,0,0-4.88,1.57A6,6,0,0,0,730.52,767.63Z" transform="translate(-241.15 -621.41)"/>
    <path class="cls-3" d="M757.52,751.5a2.61,2.61,0,0,1,.76-2.08,3,3,0,0,1,3.77,0,2.57,2.57,0,0,1,.79,2.07,2.61,2.61,0,0,1-.79,2.08,2.94,2.94,0,0,1-3.77,0A2.65,2.65,0,0,1,757.52,751.5Zm4.88,34.69H757.9V758.89h4.51v27.29Z" transform="translate(-241.15 -621.41)"/>
    <path class="cls-3" d="M781.56,783.27a17.41,17.41,0,0,0,4.07-.5v3.16a8.79,8.79,0,0,1-2.16.54,17.7,17.7,0,0,1-2.57.21q-8.63,0-8.63-8.34V762.1H768v-2l4.26-1.72,1.9-5.83h2.6v6.33h8.63v3.21h-8.63v16.06a5.23,5.23,0,0,0,1.28,3.79A4.64,4.64,0,0,0,781.56,783.27Z" transform="translate(-241.15 -621.41)"/>
    <path class="cls-3" d="M809.87,786.18L809,782.3h-0.22a12.32,12.32,0,0,1-4.44,3.47,14.62,14.62,0,0,1-5.52.91,10.51,10.51,0,0,1-6.93-2.09,7.31,7.31,0,0,1-2.51-6q0-8.27,14.41-8.67l5-.15v-1.69a6.54,6.54,0,0,0-1.51-4.74q-1.51-1.53-4.82-1.53a21,21,0,0,0-8.41,2.09l-1.38-3.16a22.27,22.27,0,0,1,4.82-1.72,22.64,22.64,0,0,1,5.25-.62q5.32,0,7.88,2.17t2.57,6.95v18.63h-3.34Zm-10.18-2.91a9.65,9.65,0,0,0,6.61-2.12,7.48,7.48,0,0,0,2.4-5.93v-2.47l-4.5.17q-5.37.17-7.75,1.53a4.53,4.53,0,0,0-2.37,4.22,4.09,4.09,0,0,0,1.48,3.41A6.52,6.52,0,0,0,799.69,783.27Z" transform="translate(-241.15 -621.41)"/>
    <path class="cls-3" d="M827,786.18h-4.5V747.44H827v38.75Z" transform="translate(-241.15 -621.41)"/>
    <path class="cls-3" d="M864.83,786.68a13.88,13.88,0,0,1-5.31-1,9.86,9.86,0,0,1-4-3h-0.33a33.67,33.67,0,0,1,.33,4.53v11.23H851V758.89h3.66l0.62,3.74h0.22a10.26,10.26,0,0,1,4-3.24,13.25,13.25,0,0,1,5.29-1q5.92,0,9.13,3.71t3.22,10.41q0,6.72-3.27,10.45T864.83,786.68Zm-0.65-24.78q-4.56,0-6.59,2.32t-2.09,7.37v0.92q0,5.75,2.09,8.23t6.7,2.48a7.17,7.17,0,0,0,6-2.86q2.18-2.86,2.18-7.89t-2.18-7.83A7.43,7.43,0,0,0,864.17,761.9Z" transform="translate(-241.15 -621.41)"/>
    <path class="cls-3" d="M898.61,758.39a19.16,19.16,0,0,1,3.55.3l-0.62,3.83a16.65,16.65,0,0,0-3.26-.37,8.23,8.23,0,0,0-6.17,2.69,9.33,9.33,0,0,0-2.56,6.7v14.64H885V758.89h3.72l0.52,5.06h0.22a12.39,12.39,0,0,1,4-4.11A9.56,9.56,0,0,1,898.61,758.39Z" transform="translate(-241.15 -621.41)"/>
    <path class="cls-3" d="M933.4,772.51q0,6.67-3.66,10.42t-10.12,3.75a14.35,14.35,0,0,1-7.08-1.72,11.73,11.73,0,0,1-4.78-4.93,16,16,0,0,1-1.68-7.52q0-6.67,3.64-10.4t10.1-3.72q6.24,0,9.92,3.81T933.4,772.51Zm-22.66,0q0,5.23,2.28,8t6.7,2.74q4.42,0,6.72-2.73t2.29-8q0-5.21-2.29-7.91t-6.77-2.7q-4.42,0-6.68,2.67T910.74,772.51Z" transform="translate(-241.15 -621.41)"/>
    <path class="cls-3" d="M961.55,782.52H961.3q-3.12,4.16-9.34,4.16-5.83,0-9.08-3.66t-3.24-10.41q0-6.75,3.26-10.48t9.06-3.74q6.05,0,9.28,4h0.35l-0.19-2-0.11-1.92V747.44h4.5v38.75h-3.66Zm-9,.7q4.61,0,6.69-2.3t2.08-7.43v-0.87q0-5.8-2.1-8.28t-6.72-2.48a7.1,7.1,0,0,0-6.07,2.83q-2.1,2.83-2.1,8t2.09,7.89A7.32,7.32,0,0,0,952.54,783.22Z" transform="translate(-241.15 -621.41)"/>
    <path class="cls-3" d="M979.59,758.89V776.6a6.74,6.74,0,0,0,1.66,5q1.66,1.64,5.18,1.64,4.67,0,6.83-2.34t2.16-7.65V758.89h4.5v27.29H996.2l-0.65-3.66h-0.24a8.77,8.77,0,0,1-3.84,3.09,13.9,13.9,0,0,1-5.6,1.07q-5.43,0-8.13-2.37t-2.7-7.57V758.89h4.56Z" transform="translate(-241.15 -621.41)"/>
    <path class="cls-3" d="M1021.36,786.68q-6.46,0-10-3.65t-3.54-10.32q0-6.85,3.6-10.58t10.25-3.74a22.15,22.15,0,0,1,4.29.42,15.12,15.12,0,0,1,3.37,1l-1.38,3.51a22.69,22.69,0,0,0-3.26-.91,15.81,15.81,0,0,0-3.12-.36q-9.07,0-9.06,10.61,0,5,2.21,7.72t6.55,2.69a21.6,21.6,0,0,0,7.63-1.47v3.66A17.51,17.51,0,0,1,1021.36,786.68Z" transform="translate(-241.15 -621.41)"/>
    <path class="cls-3" d="M1045.54,783.27a16.09,16.09,0,0,0,2.31-.16,16.27,16.27,0,0,0,1.76-.34v3.16a8.8,8.8,0,0,1-2.16.54,17.7,17.7,0,0,1-2.56.21q-8.63,0-8.63-8.34V762.1H1032v-2l4.26-1.72,1.9-5.83h2.61v6.33h8.63v3.21h-8.63v16.06A5.23,5.23,0,0,0,1042,782,4.64,4.64,0,0,0,1045.54,783.27Z" transform="translate(-241.15 -621.41)"/>
    <path class="cls-3" d="M1055.17,751.5a2.61,2.61,0,0,1,.76-2.08,3,3,0,0,1,3.77,0,2.57,2.57,0,0,1,.79,2.07,2.61,2.61,0,0,1-.79,2.08,2.76,2.76,0,0,1-1.87.68,2.73,2.73,0,0,1-1.9-.68A2.66,2.66,0,0,1,1055.17,751.5Zm4.88,34.69h-4.5V758.89h4.5v27.29Z" transform="translate(-241.15 -621.41)"/>
    <path class="cls-3" d="M1095.29,772.51q0,6.67-3.66,10.42t-10.12,3.75a14.35,14.35,0,0,1-7.08-1.72,11.73,11.73,0,0,1-4.78-4.93,16,16,0,0,1-1.68-7.52q0-6.67,3.64-10.4t10.1-3.72q6.24,0,9.92,3.81T1095.29,772.51Zm-22.66,0q0,5.23,2.28,8t6.7,2.74q4.42,0,6.72-2.73t2.29-8q0-5.21-2.29-7.91t-6.77-2.7q-4.42,0-6.68,2.67T1072.63,772.51Z" transform="translate(-241.15 -621.41)"/>
    <path class="cls-3" d="M1123.54,786.18V768.53a6.74,6.74,0,0,0-1.66-5q-1.66-1.64-5.18-1.64-4.67,0-6.84,2.32t-2.17,7.64v14.32h-4.5V758.89h3.66l0.73,3.74h0.22a9,9,0,0,1,3.88-3.12,13.58,13.58,0,0,1,5.56-1.11q5.37,0,8.09,2.38t2.71,7.61v17.81h-4.51Z" transform="translate(-241.15 -621.41)"/>
  </g>
</svg>
